<svg width="16" height="15" viewBox="0 0 16 15" fill="none" xmlns="http://www.w3.org/2000/svg">
<path fill-rule="evenodd" clip-rule="evenodd" d="M7.62937 -3.27696e-07C3.41634 -3.27696e-07 0 3.44279 0 7.68988C0 11.0875 2.18605 13.97 5.21743 14.9868C5.59872 15.058 5.73871 14.82 5.73871 14.6169C5.73871 14.4335 5.73163 13.8277 5.72835 13.1852C3.60585 13.6503 3.15797 12.2779 3.15797 12.2779C2.81092 11.389 2.31087 11.1527 2.31087 11.1527C1.61866 10.6754 2.36305 10.6852 2.36305 10.6852C3.12917 10.7393 3.53257 11.4778 3.53257 11.4778C4.21304 12.6533 5.31737 12.3134 5.75273 12.1169C5.82121 11.6199 6.01893 11.2805 6.23711 11.0886C4.54253 10.8942 2.76114 10.2348 2.76114 7.28824C2.76114 6.44868 3.05918 5.7627 3.54723 5.22417C3.46801 5.03036 3.20687 4.24836 3.62114 3.18913C3.62114 3.18913 4.2618 2.98246 5.71976 3.97737C6.32833 3.80699 6.981 3.72155 7.62937 3.71862C8.27775 3.72155 8.93092 3.80699 9.54063 3.97737C10.9968 2.98246 11.6366 3.18913 11.6366 3.18913C12.0519 4.24836 11.7906 5.03036 11.7114 5.22417C12.2006 5.7627 12.4966 6.44868 12.4966 7.28824C12.4966 10.2418 10.7118 10.8921 9.01292 11.0825C9.28657 11.3211 9.5304 11.7891 9.5304 12.5066C9.5304 13.5355 9.52156 14.3636 9.52156 14.6169C9.52156 14.8215 9.65889 15.0613 10.0456 14.9858C13.0754 13.9678 15.2586 11.0863 15.2586 7.68988C15.2586 3.44279 11.8428 -3.27696e-07 7.62937 -3.27696e-07" fill="#333333"/>
<path d="M2.88963 11.041C2.87282 11.0793 2.81319 11.0906 2.75887 11.0644C2.70353 11.0393 2.67245 10.9872 2.69039 10.9489C2.70681 10.9097 2.76657 10.8987 2.82178 10.9249C2.87725 10.9501 2.90883 11.0027 2.88963 11.041Z" fill="#1B1817"/>
<path d="M3.19866 11.3884C3.16227 11.4224 3.09114 11.4066 3.04288 11.3528C2.99298 11.2992 2.98363 11.2275 3.02052 11.193C3.05804 11.1592 3.12702 11.1751 3.17705 11.2286C3.22696 11.2828 3.23668 11.354 3.19866 11.3884Z" fill="#1B1817"/>
<path d="M3.49947 11.8313C3.45272 11.864 3.37629 11.8333 3.32904 11.7649C3.28229 11.6965 3.28229 11.6145 3.33005 11.5817C3.37743 11.5488 3.45273 11.5785 3.50061 11.6462C3.54723 11.7158 3.54723 11.7978 3.49947 11.8313" fill="#1B1817"/>
<path d="M3.91159 12.2591C3.86977 12.3056 3.7807 12.2931 3.71551 12.2297C3.6488 12.1677 3.63023 12.0797 3.67218 12.0332C3.7145 11.9866 3.80407 11.9997 3.86977 12.0626C3.93597 12.1245 3.95619 12.2132 3.91159 12.2591Z" fill="#1B1817"/>
<path d="M4.4801 12.5076C4.46165 12.5678 4.37587 12.5952 4.28945 12.5696C4.20316 12.5432 4.14669 12.4727 4.16412 12.4118C4.18206 12.3512 4.26822 12.3227 4.35527 12.3501C4.44144 12.3763 4.49804 12.4463 4.4801 12.5076Z" fill="#1B1817"/>
<path d="M5.10448 12.5537C5.10663 12.6171 5.03335 12.6697 4.94264 12.6708C4.85142 12.6729 4.77764 12.6215 4.77663 12.5591C4.77663 12.4951 4.84827 12.443 4.93948 12.4415C5.03019 12.4397 5.10448 12.4906 5.10448 12.5537Z" fill="#1B1817"/>
<path d="M5.6855 12.454C5.69637 12.5159 5.63332 12.5794 5.54324 12.5963C5.45468 12.6126 5.37269 12.5744 5.36144 12.5131C5.35045 12.4496 5.41463 12.3861 5.50307 12.3697C5.59328 12.3539 5.67401 12.3911 5.6855 12.454" fill="#1B1817"/>
</svg>
