<svg width="18" height="18" viewBox="0 0 143 143" fill="none" xmlns="http://www.w3.org/2000/svg">
<path d="M121.688 121.688H100.526V88.5481C100.526 80.6456 100.385 70.4726 89.5201 70.4726C78.4985 70.4726 76.8121 79.0827 76.8121 87.9727V121.686H55.6505V53.5367H75.9656V62.85H76.25C78.2831 59.3739 81.2209 56.5142 84.7506 54.5757C88.2803 52.6371 92.2698 51.6922 96.294 51.8416C117.742 51.8416 121.697 65.9493 121.697 84.3025L121.688 121.688ZM31.7733 44.2212C29.3445 44.2217 26.97 43.5019 24.9503 42.1528C22.9305 40.8038 21.3563 38.8862 20.4264 36.6424C19.4966 34.3986 19.2529 31.9295 19.7263 29.5473C20.1997 27.1651 21.3689 24.9767 23.0861 23.259C24.8032 21.5412 26.9911 20.3713 29.3732 19.897C31.7553 19.4227 34.2244 19.6655 36.4685 20.5945C38.7126 21.5236 40.6308 23.0972 41.9805 25.1165C43.3303 27.1357 44.051 29.5099 44.0514 31.9387C44.0517 33.5514 43.7343 35.1483 43.1174 36.6383C42.5005 38.1284 41.5963 39.4823 40.4562 40.6228C39.3161 41.7634 37.9624 42.6682 36.4725 43.2856C34.9827 43.903 33.386 44.2209 31.7733 44.2212ZM42.354 121.688H21.1705V53.5367H42.354V121.688ZM132.238 0.00899785H10.5368C7.77457 -0.0221743 5.11279 1.04458 3.13665 2.97485C1.1605 4.90512 0.0316368 7.54097 -0.0020752 10.3032V132.509C0.030483 135.273 1.15868 137.91 3.13476 139.843C5.11084 141.775 7.7732 142.844 10.5368 142.814H132.238C135.007 142.849 137.677 141.783 139.661 139.851C141.644 137.919 142.78 135.278 142.819 132.509V10.2944C142.779 7.52668 141.642 4.88782 139.659 2.9576C137.675 1.02738 135.006 -0.0363259 132.238 0.000176968" fill="#333333"/>
</svg>
