<svg width="18" height="15" viewBox="0 0 18 15" fill="none" xmlns="http://www.w3.org/2000/svg">
<path d="M16.1093 3.77132C16.1202 3.93088 16.1202 4.09044 16.1202 4.25147C16.1202 9.15808 12.4331 14.8169 5.69105 14.8169V14.814C3.69944 14.8169 1.74919 14.239 0.0725784 13.1493C0.362175 13.1846 0.653224 13.2022 0.944998 13.2029C2.59548 13.2044 4.19879 12.6434 5.49726 11.6103C3.92879 11.5801 2.55339 10.5441 2.0729 9.03161C2.62234 9.13897 3.18847 9.11691 3.72774 8.96764C2.01774 8.61764 0.787498 7.09558 0.787498 5.32794C0.787498 5.31176 0.787498 5.29632 0.787498 5.28088C1.29701 5.56838 1.8675 5.72794 2.45105 5.74558C0.840482 4.65514 0.34403 2.48456 1.31661 0.787498C3.17758 3.10735 5.92331 4.51764 8.87081 4.66691C8.57541 3.3772 8.97895 2.02573 9.93121 1.11912C11.4075 -0.286766 13.7294 -0.214707 15.1171 1.28015C15.938 1.11617 16.7248 0.811028 17.4448 0.378675C17.1711 1.23823 16.5985 1.96838 15.8335 2.43235C16.56 2.34559 17.2698 2.14853 17.9383 1.84779C17.4462 2.59485 16.8264 3.24559 16.1093 3.77132Z" fill="#333333"/>
</svg>
